<svg width="28" height="27" viewBox="0 0 28 27" fill="none" xmlns="http://www.w3.org/2000/svg">
<rect x="0.5" y="0.5" width="26.8333" height="25.6667" rx="5.5" stroke="#828282"/>
<path d="M7.66667 20C7.20833 20 6.81597 19.8368 6.48958 19.5104C6.16319 19.184 6 18.7917 6 18.3333V6.66667C6 6.20833 6.16319 5.81597 6.48958 5.48958C6.81597 5.16319 7.20833 5 7.66667 5H19.3333C19.7917 5 20.184 5.16319 20.5104 5.48958C20.8368 5.81597 21 6.20833 21 6.66667V14.0208C20.75 13.8681 20.4861 13.7431 20.2083 13.6458C19.9306 13.5486 19.6389 13.4722 19.3333 13.4167V6.66667H7.66667V18.3333H13.5C13.5 18.625 13.5208 18.9097 13.5625 19.1875C13.6042 19.4653 13.6736 19.7361 13.7708 20H7.66667ZM10.1667 16.6667C10.4028 16.6667 10.6007 16.5868 10.7604 16.4271C10.9201 16.2674 11 16.0694 11 15.8333C11 15.5972 10.9201 15.3993 10.7604 15.2396C10.6007 15.0799 10.4028 15 10.1667 15C9.93056 15 9.73264 15.0799 9.57292 15.2396C9.41319 15.3993 9.33333 15.5972 9.33333 15.8333C9.33333 16.0694 9.41319 16.2674 9.57292 16.4271C9.73264 16.5868 9.93056 16.6667 10.1667 16.6667ZM10.1667 13.3333C10.4028 13.3333 10.6007 13.2535 10.7604 13.0938C10.9201 12.934 11 12.7361 11 12.5C11 12.2639 10.9201 12.066 10.7604 11.9063C10.6007 11.7465 10.4028 11.6667 10.1667 11.6667C9.93056 11.6667 9.73264 11.7465 9.57292 11.9063C9.41319 12.066 9.33333 12.2639 9.33333 12.5C9.33333 12.7361 9.41319 12.934 9.57292 13.0938C9.73264 13.2535 9.93056 13.3333 10.1667 13.3333ZM10.1667 10C10.4028 10 10.6007 9.92014 10.7604 9.76042C10.9201 9.60069 11 9.40278 11 9.16667C11 8.93056 10.9201 8.73264 10.7604 8.57292C10.6007 8.41319 10.4028 8.33333 10.1667 8.33333C9.93056 8.33333 9.73264 8.41319 9.57292 8.57292C9.41319 8.73264 9.33333 8.93056 9.33333 9.16667C9.33333 9.40278 9.41319 9.60069 9.57292 9.76042C9.73264 9.92014 9.93056 10 10.1667 10ZM16.8333 13.3333C17.0694 13.3333 17.2674 13.2535 17.4271 13.0938C17.5868 12.934 17.6667 12.7361 17.6667 12.5C17.6667 12.2639 17.5868 12.066 17.4271 11.9063C17.2674 11.7465 17.0694 11.6667 16.8333 11.6667H13.5C13.2639 11.6667 13.066 11.7465 12.9063 11.9063C12.7465 12.066 12.6667 12.2639 12.6667 12.5C12.6667 12.7361 12.7465 12.934 12.9063 13.0938C13.066 13.2535 13.2639 13.3333 13.5 13.3333H16.8333ZM16.8333 10C17.0694 10 17.2674 9.92014 17.4271 9.76042C17.5868 9.60069 17.6667 9.40278 17.6667 9.16667C17.6667 8.93056 17.5868 8.73264 17.4271 8.57292C17.2674 8.41319 17.0694 8.33333 16.8333 8.33333H13.5C13.2639 8.33333 13.066 8.41319 12.9063 8.57292C12.7465 8.73264 12.6667 8.93056 12.6667 9.16667C12.6667 9.40278 12.7465 9.60069 12.9063 9.76042C13.066 9.92014 13.2639 10 13.5 10H16.8333ZM13.7917 16.6667C13.9028 16.3472 14.0417 16.0486 14.2083 15.7708C14.375 15.4931 14.5694 15.2361 14.7917 15H13.5C13.2639 15 13.066 15.0799 12.9063 15.2396C12.7465 15.3993 12.6667 15.5972 12.6667 15.8333C12.6667 16.0694 12.7465 16.2674 12.9063 16.4271C13.066 16.5868 13.2639 16.6667 13.5 16.6667H13.7917ZM17.6667 19.1667H16C15.7639 19.1667 15.566 19.0868 15.4063 18.9271C15.2465 18.7674 15.1667 18.5694 15.1667 18.3333C15.1667 18.0972 15.2465 17.8993 15.4063 17.7396C15.566 17.5799 15.7639 17.5 16 17.5H17.6667V15.8333C17.6667 15.5972 17.7465 15.3993 17.9063 15.2396C18.066 15.0799 18.2639 15 18.5 15C18.7361 15 18.934 15.0799 19.0938 15.2396C19.2535 15.3993 19.3333 15.5972 19.3333 15.8333V17.5H21C21.2361 17.5 21.434 17.5799 21.5937 17.7396C21.7535 17.8993 21.8333 18.0972 21.8333 18.3333C21.8333 18.5694 21.7535 18.7674 21.5937 18.9271C21.434 19.0868 21.2361 19.1667 21 19.1667H19.3333V20.8333C19.3333 21.0694 19.2535 21.2674 19.0938 21.4271C18.934 21.5868 18.7361 21.6667 18.5 21.6667C18.2639 21.6667 18.066 21.5868 17.9063 21.4271C17.7465 21.2674 17.6667 21.0694 17.6667 20.8333V19.1667Z" fill="#4F4F4F"/>
</svg>
