<svg width="20" height="20" viewBox="0 0 20 20" fill="none" xmlns="http://www.w3.org/2000/svg">
<mask id="mask0_4536_3179" style="mask-type:alpha" maskUnits="userSpaceOnUse" x="0" y="0" width="20" height="20">
<rect width="20" height="20" fill="#D9D9D9"/>
</mask>
<g mask="url(#mask0_4536_3179)">
<path d="M5.83464 14.1667H8.33464C8.57075 14.1667 8.76866 14.2465 8.92839 14.4063C9.08811 14.566 9.16797 14.7639 9.16797 15C9.16797 15.2361 9.08811 15.434 8.92839 15.5938C8.76866 15.7535 8.57075 15.8334 8.33464 15.8334H5.0013C4.76519 15.8334 4.56727 15.7535 4.40755 15.5938C4.24783 15.434 4.16797 15.2361 4.16797 15V11.6667C4.16797 11.4306 4.24783 11.2327 4.40755 11.0729C4.56727 10.9132 4.76519 10.8334 5.0013 10.8334C5.23741 10.8334 5.43533 10.9132 5.59505 11.0729C5.75477 11.2327 5.83464 11.4306 5.83464 11.6667V14.1667ZM14.168 5.83335H11.668C11.4319 5.83335 11.2339 5.75349 11.0742 5.59377C10.9145 5.43405 10.8346 5.23613 10.8346 5.00002C10.8346 4.76391 10.9145 4.56599 11.0742 4.40627C11.2339 4.24655 11.4319 4.16669 11.668 4.16669H15.0013C15.2374 4.16669 15.4353 4.24655 15.5951 4.40627C15.7548 4.56599 15.8346 4.76391 15.8346 5.00002V8.33335C15.8346 8.56946 15.7548 8.76738 15.5951 8.9271C15.4353 9.08683 15.2374 9.16669 15.0013 9.16669C14.7652 9.16669 14.5673 9.08683 14.4076 8.9271C14.2478 8.76738 14.168 8.56946 14.168 8.33335V5.83335Z" fill="#1C1B1F"/>
</g>
</svg>
