<svg width="11" height="7" viewBox="0 0 11 7" fill="none" xmlns="http://www.w3.org/2000/svg">
<path d="M5.33937 4.2904L9.41247 0.217326C9.55092 0.0788589 9.72495 0.00802555 9.93457 0.00482556C10.1442 0.0016089 10.3214 0.0724422 10.4663 0.217326C10.6112 0.362192 10.6836 0.537825 10.6836 0.744225C10.6836 0.950625 10.6112 1.12626 10.4663 1.27113L5.97204 5.76535C5.87846 5.85895 5.77974 5.92498 5.67589 5.96343C5.57206 6.00189 5.45989 6.02113 5.33937 6.02113C5.21885 6.02113 5.10668 6.00189 5.00284 5.96343C4.89899 5.92498 4.80028 5.85895 4.70669 5.76535L0.212469 1.27112C0.0740024 1.13267 0.00316944 0.958641 -3.05503e-05 0.749025C-0.00324721 0.539425 0.0675858 0.362192 0.212469 0.217325C0.357336 0.0724418 0.532969 -4.43698e-07 0.739369 -4.34676e-07C0.945769 -4.25654e-07 1.1214 0.0724418 1.26627 0.217325L5.33937 4.2904Z" fill="#828282"/>
</svg>
