<svg width="24" height="24" viewBox="0 0 24 24" fill="none" xmlns="http://www.w3.org/2000/svg">
<mask id="mask0_4591_3204" style="mask-type:alpha" maskUnits="userSpaceOnUse" x="0" y="0" width="24" height="24">
<rect x="24" width="24" height="24" transform="rotate(90 24 0)" fill="#D9D9D9"/>
</mask>
<g mask="url(#mask0_4591_3204)">
<path d="M11.9995 12.9462L16.0726 8.87309C16.2111 8.73462 16.3851 8.66379 16.5947 8.66059C16.8043 8.65737 16.9816 8.7282 17.1264 8.87309C17.2713 9.01795 17.3437 9.19359 17.3437 9.39999C17.3437 9.60639 17.2713 9.78202 17.1264 9.92689L12.6322 14.4211C12.5386 14.5147 12.4399 14.5807 12.3361 14.6192C12.2322 14.6577 12.12 14.6769 11.9995 14.6769C11.879 14.6769 11.7668 14.6577 11.663 14.6192C11.5592 14.5807 11.4604 14.5147 11.3669 14.4211L6.87263 9.92689C6.73416 9.78844 6.66333 9.6144 6.66013 9.40479C6.65691 9.19519 6.72774 9.01795 6.87263 8.87309C7.01749 8.7282 7.19313 8.65576 7.39953 8.65576C7.60593 8.65576 7.78156 8.7282 7.92642 8.87309L11.9995 12.9462Z" fill="#828282"/>
</g>
</svg>
