<svg width="26" height="27" viewBox="0 0 26 27" fill="none" xmlns="http://www.w3.org/2000/svg">
<rect width="25.8024" height="26.7083" rx="12.9012" fill="#B756F2" fill-opacity="0.1"/>
<path d="M12.9066 15.4375L19.0316 9.31248C19.2399 9.10415 19.483 9.00345 19.7608 9.0104C20.0385 9.01734 20.2816 9.12498 20.4899 9.33331C20.6983 9.54165 20.8024 9.7847 20.8024 10.0625C20.8024 10.3403 20.6983 10.5833 20.4899 10.7916L14.0941 17.2083C13.9274 17.375 13.7399 17.5 13.5316 17.5833C13.3233 17.6666 13.1149 17.7083 12.9066 17.7083C12.6983 17.7083 12.4899 17.6666 12.2816 17.5833C12.0733 17.5 11.8858 17.375 11.7191 17.2083L5.30242 10.7916C5.09409 10.5833 4.99339 10.3368 5.00034 10.0521C5.00728 9.76734 5.11492 9.52081 5.32325 9.31248C5.53159 9.10415 5.77464 8.99998 6.05242 8.99998C6.3302 8.99998 6.57325 9.10415 6.78159 9.31248L12.9066 15.4375Z" fill="#9B51E0" fill-opacity="0.7"/>
</svg>
