<svg width="20" height="20" viewBox="0 0 20 20" fill="none" xmlns="http://www.w3.org/2000/svg">
<mask id="mask0_4440_17" style="mask-type:alpha" maskUnits="userSpaceOnUse" x="0" y="0" width="20" height="20">
<rect width="20" height="20" fill="#D9D9D9"/>
</mask>
<g mask="url(#mask0_4440_17)">
<path d="M5.83268 11.6665H14.166C14.4021 11.6665 14.6 11.5866 14.7598 11.4269C14.9195 11.2672 14.9993 11.0693 14.9993 10.8332C14.9993 10.5971 14.9195 10.3991 14.7598 10.2394C14.6 10.0797 14.4021 9.99984 14.166 9.99984H5.83268C5.59657 9.99984 5.39865 10.0797 5.23893 10.2394C5.07921 10.3991 4.99935 10.5971 4.99935 10.8332C4.99935 11.0693 5.07921 11.2672 5.23893 11.4269C5.39865 11.5866 5.59657 11.6665 5.83268 11.6665ZM5.83268 9.1665H14.166C14.4021 9.1665 14.6 9.08664 14.7598 8.92692C14.9195 8.7672 14.9993 8.56928 14.9993 8.33317C14.9993 8.09706 14.9195 7.89914 14.7598 7.73942C14.6 7.5797 14.4021 7.49984 14.166 7.49984H5.83268C5.59657 7.49984 5.39865 7.5797 5.23893 7.73942C5.07921 7.89914 4.99935 8.09706 4.99935 8.33317C4.99935 8.56928 5.07921 8.7672 5.23893 8.92692C5.39865 9.08664 5.59657 9.1665 5.83268 9.1665ZM5.83268 6.6665H14.166C14.4021 6.6665 14.6 6.58664 14.7598 6.42692C14.9195 6.2672 14.9993 6.06928 14.9993 5.83317C14.9993 5.59706 14.9195 5.39914 14.7598 5.23942C14.6 5.0797 14.4021 4.99984 14.166 4.99984H5.83268C5.59657 4.99984 5.39865 5.0797 5.23893 5.23942C5.07921 5.39914 4.99935 5.59706 4.99935 5.83317C4.99935 6.06928 5.07921 6.2672 5.23893 6.42692C5.39865 6.58664 5.59657 6.6665 5.83268 6.6665ZM3.33268 14.9998C2.87435 14.9998 2.48199 14.8366 2.1556 14.5103C1.82921 14.1839 1.66602 13.7915 1.66602 13.3332V3.33317C1.66602 2.87484 1.82921 2.48248 2.1556 2.15609C2.48199 1.8297 2.87435 1.6665 3.33268 1.6665H16.666C17.1243 1.6665 17.5167 1.8297 17.8431 2.15609C18.1695 2.48248 18.3327 2.87484 18.3327 3.33317V16.3123C18.3327 16.6873 18.1625 16.9478 17.8223 17.0936C17.482 17.2394 17.1799 17.1804 16.916 16.9165L14.9993 14.9998H3.33268ZM15.7077 13.3332L16.666 14.2707V3.33317H3.33268V13.3332H15.7077Z" fill="#2D9CDB"/>
</g>
</svg>
