<svg width="38" height="36" viewBox="0 0 38 36" fill="none" xmlns="http://www.w3.org/2000/svg">
<rect x="0.5" y="0.5" width="37" height="35" rx="4.5" fill="white"/>
<rect x="0.5" y="0.5" width="37" height="35" rx="4.5" stroke="#E0E0E0"/>
<mask id="mask0_9216_78112" style="mask-type:alpha" maskUnits="userSpaceOnUse" x="7" y="6" width="24" height="24">
<rect x="7" y="6" width="24" height="24" fill="#D9D9D9"/>
</mask>
<g mask="url(#mask0_9216_78112)">
<path d="M12 26C11.7167 26 11.4792 25.9042 11.2875 25.7125C11.0958 25.5208 11 25.2833 11 25V15C11 14.7167 11.0958 14.4792 11.2875 14.2875C11.4792 14.0958 11.7167 14 12 14H14C14.2833 14 14.5208 14.0958 14.7125 14.2875C14.9042 14.4792 15 14.7167 15 15V25C15 25.2833 14.9042 25.5208 14.7125 25.7125C14.5208 25.9042 14.2833 26 14 26H12ZM17 26C16.7167 26 16.4792 25.9042 16.2875 25.7125C16.0958 25.5208 16 25.2833 16 25V20C16 19.7167 16.0958 19.4792 16.2875 19.2875C16.4792 19.0958 16.7167 19 17 19H19C19.2833 19 19.5208 19.0958 19.7125 19.2875C19.9042 19.4792 20 19.7167 20 20V25C20 25.2833 19.9042 25.5208 19.7125 25.7125C19.5208 25.9042 19.2833 26 19 26H17ZM24 26C23.7167 26 23.4792 25.9042 23.2875 25.7125C23.0958 25.5208 23 25.2833 23 25V11C23 10.7167 23.0958 10.4792 23.2875 10.2875C23.4792 10.0958 23.7167 10 24 10H26C26.2833 10 26.5208 10.0958 26.7125 10.2875C26.9042 10.4792 27 10.7167 27 11V25C27 25.2833 26.9042 25.5208 26.7125 25.7125C26.5208 25.9042 26.2833 26 26 26H24Z" fill="#4F4F4F"/>
</g>
</svg>
