<svg width="20" height="20" viewBox="0 0 20 20" fill="none" xmlns="http://www.w3.org/2000/svg">
<mask id="mask0_9274_78116" style="mask-type:alpha" maskUnits="userSpaceOnUse" x="0" y="0" width="20" height="20">
<rect width="20" height="20" fill="#D9D9D9"/>
</mask>
<g mask="url(#mask0_9274_78116)">
<path d="M12.7077 4.16669C12.416 4.16669 12.1695 4.06599 11.9681 3.8646C11.7667 3.66321 11.666 3.41669 11.666 3.12502C11.666 2.83335 11.7667 2.58682 11.9681 2.38544C12.1695 2.18405 12.416 2.08335 12.7077 2.08335C12.9993 2.08335 13.2459 2.18405 13.4473 2.38544C13.6487 2.58682 13.7493 2.83335 13.7493 3.12502C13.7493 3.41669 13.6487 3.66321 13.4473 3.8646C13.2459 4.06599 12.9993 4.16669 12.7077 4.16669ZM12.7077 17.9167C12.416 17.9167 12.1695 17.816 11.9681 17.6146C11.7667 17.4132 11.666 17.1667 11.666 16.875C11.666 16.5834 11.7667 16.3368 11.9681 16.1354C12.1695 15.934 12.416 15.8334 12.7077 15.8334C12.9993 15.8334 13.2459 15.934 13.4473 16.1354C13.6487 16.3368 13.7493 16.5834 13.7493 16.875C13.7493 17.1667 13.6487 17.4132 13.4473 17.6146C13.2459 17.816 12.9993 17.9167 12.7077 17.9167ZM16.041 7.08335C15.7493 7.08335 15.5028 6.98266 15.3014 6.78127C15.1 6.57988 14.9993 6.33335 14.9993 6.04169C14.9993 5.75002 15.1 5.50349 15.3014 5.3021C15.5028 5.10071 15.7493 5.00002 16.041 5.00002C16.3327 5.00002 16.5792 5.10071 16.7806 5.3021C16.982 5.50349 17.0827 5.75002 17.0827 6.04169C17.0827 6.33335 16.982 6.57988 16.7806 6.78127C16.5792 6.98266 16.3327 7.08335 16.041 7.08335ZM16.041 15C15.7493 15 15.5028 14.8993 15.3014 14.6979C15.1 14.4965 14.9993 14.25 14.9993 13.9584C14.9993 13.6667 15.1 13.4202 15.3014 13.2188C15.5028 13.0174 15.7493 12.9167 16.041 12.9167C16.3327 12.9167 16.5792 13.0174 16.7806 13.2188C16.982 13.4202 17.0827 13.6667 17.0827 13.9584C17.0827 14.25 16.982 14.4965 16.7806 14.6979C16.5792 14.8993 16.3327 15 16.041 15ZM17.291 11.0417C16.9993 11.0417 16.7528 10.941 16.5514 10.7396C16.35 10.5382 16.2493 10.2917 16.2493 10C16.2493 9.70835 16.35 9.46183 16.5514 9.26044C16.7528 9.05905 16.9993 8.95835 17.291 8.95835C17.5827 8.95835 17.8292 9.05905 18.0306 9.26044C18.232 9.46183 18.3327 9.70835 18.3327 10C18.3327 10.2917 18.232 10.5382 18.0306 10.7396C17.8292 10.941 17.5827 11.0417 17.291 11.0417ZM1.66602 10C1.66602 7.81946 2.39171 5.94446 3.8431 4.37502C5.29449 2.80557 7.07574 1.91669 9.18685 1.70835C9.40907 1.68057 9.60004 1.74655 9.75977 1.90627C9.91949 2.06599 9.99935 2.26391 9.99935 2.50002C9.99935 2.72224 9.92643 2.91669 9.7806 3.08335C9.63477 3.25002 9.45074 3.34724 9.22852 3.37502C7.54796 3.56946 6.14518 4.29169 5.02018 5.54169C3.89518 6.79169 3.33268 8.2778 3.33268 10C3.33268 11.7361 3.89518 13.2257 5.02018 14.4688C6.14518 15.7118 7.54796 16.4306 9.22852 16.625C9.45074 16.6528 9.63477 16.75 9.7806 16.9167C9.92643 17.0834 9.99935 17.2778 9.99935 17.5C9.99935 17.7361 9.91949 17.934 9.75977 18.0938C9.60004 18.2535 9.40907 18.3195 9.18685 18.2917C7.06185 18.0834 5.27713 17.1945 3.83268 15.625C2.38824 14.0556 1.66602 12.1806 1.66602 10ZM9.99935 11.6667C9.54102 11.6667 9.14865 11.5035 8.82227 11.1771C8.49588 10.8507 8.33268 10.4584 8.33268 10C8.33268 9.93057 8.33615 9.85766 8.3431 9.78127C8.35004 9.70488 8.3674 9.63196 8.39518 9.56252L7.24935 8.41669C7.09657 8.26391 7.02018 8.06946 7.02018 7.83335C7.02018 7.59724 7.09657 7.4028 7.24935 7.25002C7.40213 7.09724 7.59657 7.02085 7.83268 7.02085C8.06879 7.02085 8.26324 7.09724 8.41602 7.25002L9.56185 8.39585C9.6174 8.38196 9.76324 8.36113 9.99935 8.33335C10.4577 8.33335 10.85 8.49655 11.1764 8.82294C11.5028 9.14933 11.666 9.54169 11.666 10C11.666 10.4584 11.5028 10.8507 11.1764 11.1771C10.85 11.5035 10.4577 11.6667 9.99935 11.6667Z" fill="#1C1B1F"/>
</g>
</svg>
