<svg width="24" height="24" viewBox="0 0 24 24" fill="none" xmlns="http://www.w3.org/2000/svg">
<mask id="mask0_4003_2" style="mask-type:alpha" maskUnits="userSpaceOnUse" x="0" y="0" width="24" height="24">
<rect x="24" width="24" height="24" transform="rotate(90 24 0)" fill="#D9D9D9"/>
</mask>
<g mask="url(#mask0_4003_2)">
<path d="M9.8 11L18 11C18.2833 11 18.5208 11.0959 18.7125 11.2875C18.9042 11.4792 19 11.7167 19 12C19 12.2834 18.9042 12.5209 18.7125 12.7125C18.5208 12.9042 18.2833 13 18 13L9.8 13L12.7 15.9C12.8833 16.0834 12.975 16.3167 12.975 16.6C12.975 16.8834 12.8833 17.1167 12.7 17.3C12.5167 17.4834 12.2833 17.575 12 17.575C11.7167 17.575 11.4833 17.4834 11.3 17.3L6.7 12.7C6.5 12.5 6.4 12.2667 6.4 12C6.4 11.7334 6.5 11.5 6.7 11.3L11.3 6.70005C11.4833 6.51672 11.7167 6.42505 12 6.42505C12.2833 6.42505 12.5167 6.51672 12.7 6.70005C12.8833 6.88338 12.975 7.11672 12.975 7.40005C12.975 7.68338 12.8833 7.91672 12.7 8.10005L9.8 11Z" fill="#1C1B1F"/>
</g>
</svg>


