<svg width="32" height="32" viewBox="0 0 32 32" fill="none" xmlns="http://www.w3.org/2000/svg">
<mask id="mask0_4010_5" style="mask-type:alpha" maskUnits="userSpaceOnUse" x="0" y="0" width="32" height="32">
<rect width="32" height="32" fill="#D9D9D9"/>
</mask>
<g mask="url(#mask0_4010_5)">
<path d="M15.6003 24C13.467 23.8888 11.667 23.0666 10.2003 21.5333C8.73366 20 8.00033 18.1555 8.00033 16C8.00033 13.7777 8.7781 11.8888 10.3337 10.3333C11.8892 8.77774 13.7781 7.99996 16.0003 7.99996C18.1559 7.99996 20.0003 8.73329 21.5337 10.2C23.067 11.6666 23.8892 13.4666 24.0003 15.6L21.2003 14.7666C20.9114 13.5666 20.2892 12.5833 19.3337 11.8166C18.3781 11.05 17.267 10.6666 16.0003 10.6666C14.5337 10.6666 13.2781 11.1888 12.2337 12.2333C11.1892 13.2777 10.667 14.5333 10.667 16C10.667 17.2666 11.0503 18.3777 11.817 19.3333C12.5837 20.2888 13.567 20.9111 14.767 21.2L15.6003 24ZM17.2003 29.2666C17.0003 29.3111 16.8003 29.3333 16.6003 29.3333H16.0003C14.1559 29.3333 12.4225 28.9833 10.8003 28.2833C9.1781 27.5833 7.76699 26.6333 6.56699 25.4333C5.36699 24.2333 4.41699 22.8222 3.71699 21.2C3.01699 19.5777 2.66699 17.8444 2.66699 16C2.66699 14.1555 3.01699 12.4222 3.71699 10.8C4.41699 9.17774 5.36699 7.76663 6.56699 6.56663C7.76699 5.36663 9.1781 4.41663 10.8003 3.71663C12.4225 3.01663 14.1559 2.66663 16.0003 2.66663C17.8448 2.66663 19.5781 3.01663 21.2003 3.71663C22.8225 4.41663 24.2337 5.36663 25.4337 6.56663C26.6337 7.76663 27.5837 9.17774 28.2837 10.8C28.9837 12.4222 29.3337 14.1555 29.3337 16V16.6C29.3337 16.8 29.3114 17 29.267 17.2L26.667 16.4V16C26.667 13.0222 25.6337 10.5 23.567 8.43329C21.5003 6.36663 18.9781 5.33329 16.0003 5.33329C13.0225 5.33329 10.5003 6.36663 8.43366 8.43329C6.36699 10.5 5.33366 13.0222 5.33366 16C5.33366 18.9777 6.36699 21.5 8.43366 23.5666C10.5003 25.6333 13.0225 26.6666 16.0003 26.6666H16.4003L17.2003 29.2666ZM26.067 28.6666L21.667 24.3L20.667 27.3333C20.5559 27.6444 20.3448 27.7944 20.0337 27.7833C19.7225 27.7722 19.5114 27.6111 19.4003 27.3L16.367 17.2C16.2781 16.9555 16.3337 16.7333 16.5337 16.5333C16.7337 16.3333 16.9559 16.2777 17.2003 16.3666L27.3003 19.4C27.6114 19.5111 27.7725 19.7222 27.7837 20.0333C27.7948 20.3444 27.6448 20.5555 27.3337 20.6666L24.3003 21.6666L28.7003 26.0666C29.0781 26.4444 29.267 26.8777 29.267 27.3666C29.267 27.8555 29.0781 28.2888 28.7003 28.6666C28.3225 29.0444 27.8837 29.2333 27.3837 29.2333C26.8837 29.2333 26.4448 29.0444 26.067 28.6666Z" fill="#333333"/>
</g>
</svg>
