<svg width="24" height="24" viewBox="0 0 24 24" fill="none" xmlns="http://www.w3.org/2000/svg">
<mask id="mask0_4518_3167" style="mask-type:alpha" maskUnits="userSpaceOnUse" x="0" y="0" width="24" height="24">
<rect x="24" width="24" height="24" transform="rotate(90 24 0)" fill="#D9D9D9"/>
</mask>
<g mask="url(#mask0_4518_3167)">
<path d="M9.8 10.9998L18 10.9998C18.2833 10.9998 18.5208 11.0956 18.7125 11.2873C18.9042 11.479 19 11.7165 19 11.9998C19 12.2831 18.9042 12.5206 18.7125 12.7123C18.5208 12.904 18.2833 12.9998 18 12.9998L9.8 12.9998L12.7 15.8998C12.8833 16.0831 12.975 16.3165 12.975 16.5998C12.975 16.8831 12.8833 17.1165 12.7 17.2998C12.5167 17.4831 12.2833 17.5748 12 17.5748C11.7167 17.5748 11.4833 17.4831 11.3 17.2998L6.7 12.6998C6.5 12.4998 6.4 12.2665 6.4 11.9998C6.4 11.7331 6.5 11.4998 6.7 11.2998L11.3 6.6998C11.4833 6.51647 11.7167 6.4248 12 6.4248C12.2833 6.4248 12.5167 6.51647 12.7 6.6998C12.8833 6.88314 12.975 7.11647 12.975 7.3998C12.975 7.68314 12.8833 7.91647 12.7 8.0998L9.8 10.9998Z" fill="#1C1B1F"/>
</g>
</svg>
