<svg width="19" height="17" viewBox="0 0 19 17" fill="none" xmlns="http://www.w3.org/2000/svg">
<path d="M15.175 14H12C11.7167 14 11.4792 13.9042 11.2875 13.7125C11.0958 13.5208 11 13.2833 11 13C11 12.7167 11.0958 12.4792 11.2875 12.2875C11.4792 12.0958 11.7167 12 12 12H15.175L14.3 11.125C14.1167 10.925 14.0208 10.6875 14.0125 10.4125C14.0042 10.1375 14.1 9.9 14.3 9.7C14.5 9.5 14.7333 9.4 15 9.4C15.2667 9.4 15.5 9.5 15.7 9.7L18.3 12.3C18.5 12.5 18.6 12.7333 18.6 13C18.6 13.2667 18.5 13.5 18.3 13.7L15.7 16.3C15.5 16.5 15.2667 16.6 15 16.6C14.7333 16.6 14.5 16.5 14.3 16.3C14.1 16.1 14.0042 15.8625 14.0125 15.5875C14.0208 15.3125 14.1167 15.075 14.3 14.875L15.175 14ZM5 6H11C11.2833 6 11.5208 5.90417 11.7125 5.7125C11.9042 5.52083 12 5.28333 12 5C12 4.71667 11.9042 4.47917 11.7125 4.2875C11.5208 4.09583 11.2833 4 11 4H5C4.71667 4 4.47917 4.09583 4.2875 4.2875C4.09583 4.47917 4 4.71667 4 5C4 5.28333 4.09583 5.52083 4.2875 5.7125C4.47917 5.90417 4.71667 6 5 6ZM5 10H8C8.28333 10 8.52083 9.90417 8.7125 9.7125C8.90417 9.52083 9 9.28333 9 9C9 8.71667 8.90417 8.47917 8.7125 8.2875C8.52083 8.09583 8.28333 8 8 8H5C4.71667 8 4.47917 8.09583 4.2875 8.2875C4.09583 8.47917 4 8.71667 4 9C4 9.28333 4.09583 9.52083 4.2875 9.7125C4.47917 9.90417 4.71667 10 5 10ZM3 14L0.85 16.15C0.683333 16.3167 0.5 16.3583 0.3 16.275C0.1 16.1917 0 16.0333 0 15.8V2C0 1.45 0.195833 0.979167 0.5875 0.5875C0.979167 0.195833 1.45 0 2 0H14C14.55 0 15.0208 0.195833 15.4125 0.5875C15.8042 0.979167 16 1.45 16 2V7.075C15.8333 7.04167 15.6667 7.02083 15.5 7.0125C15.3333 7.00417 15.1667 7 15 7C13.3167 7 11.8958 7.58333 10.7375 8.75C9.57917 9.91667 9 11.3333 9 13C9 13.1667 9.00417 13.3333 9.0125 13.5C9.02083 13.6667 9.04167 13.8333 9.075 14H3Z" fill="white"/>
</svg>
