<svg width="24" height="24" viewBox="0 0 24 24" fill="none" xmlns="http://www.w3.org/2000/svg">
<mask id="mask0_9181_77745" style="mask-type:alpha" maskUnits="userSpaceOnUse" x="0" y="0" width="24" height="24">
<rect width="24" height="24" fill="#D9D9D9"/>
</mask>
<g mask="url(#mask0_9181_77745)">
<path d="M11.7 18C10.1 17.9167 8.75 17.3 7.65 16.15C6.55 15 6 13.6167 6 12C6 10.3333 6.58333 8.91667 7.75 7.75C8.91667 6.58333 10.3333 6 12 6C13.6167 6 15 6.55 16.15 7.65C17.3 8.75 17.9167 10.1 18 11.7L15.9 11.075C15.6833 10.175 15.2167 9.4375 14.5 8.8625C13.7833 8.2875 12.95 8 12 8C10.9 8 9.95833 8.39167 9.175 9.175C8.39167 9.95833 8 10.9 8 12C8 12.95 8.2875 13.7833 8.8625 14.5C9.4375 15.2167 10.175 15.6833 11.075 15.9L11.7 18ZM12.9 21.95C12.75 21.9833 12.6 22 12.45 22H12C10.6167 22 9.31667 21.7375 8.1 21.2125C6.88333 20.6875 5.825 19.975 4.925 19.075C4.025 18.175 3.3125 17.1167 2.7875 15.9C2.2625 14.6833 2 13.3833 2 12C2 10.6167 2.2625 9.31667 2.7875 8.1C3.3125 6.88333 4.025 5.825 4.925 4.925C5.825 4.025 6.88333 3.3125 8.1 2.7875C9.31667 2.2625 10.6167 2 12 2C13.3833 2 14.6833 2.2625 15.9 2.7875C17.1167 3.3125 18.175 4.025 19.075 4.925C19.975 5.825 20.6875 6.88333 21.2125 8.1C21.7375 9.31667 22 10.6167 22 12V12.45C22 12.6 21.9833 12.75 21.95 12.9L20 12.3V12C20 9.76667 19.225 7.875 17.675 6.325C16.125 4.775 14.2333 4 12 4C9.76667 4 7.875 4.775 6.325 6.325C4.775 7.875 4 9.76667 4 12C4 14.2333 4.775 16.125 6.325 17.675C7.875 19.225 9.76667 20 12 20H12.3L12.9 21.95ZM19.55 21.5L16.25 18.225L15.5 20.5C15.4167 20.7333 15.2583 20.8458 15.025 20.8375C14.7917 20.8292 14.6333 20.7083 14.55 20.475L12.275 12.9C12.2083 12.7167 12.25 12.55 12.4 12.4C12.55 12.25 12.7167 12.2083 12.9 12.275L20.475 14.55C20.7083 14.6333 20.8292 14.7917 20.8375 15.025C20.8458 15.2583 20.7333 15.4167 20.5 15.5L18.225 16.25L21.525 19.55C21.8083 19.8333 21.95 20.1583 21.95 20.525C21.95 20.8917 21.8083 21.2167 21.525 21.5C21.2417 21.7833 20.9125 21.925 20.5375 21.925C20.1625 21.925 19.8333 21.7833 19.55 21.5Z" fill="#F2F2F2"/>
</g>
</svg>

